<svg width="150" height="80" viewBox="0 0 150 80" fill="none" xmlns="http://www.w3.org/2000/svg">
<path fill-rule="evenodd" clip-rule="evenodd" d="M73.2335 69.7187H77.8049V41.677H73.2335V69.7187ZM148.929 53.7097V69.7187H144.409V53.7097C144.409 48.5069 141.995 45.5228 137.787 45.5228C133.34 45.5228 131.157 48.0253 131.113 53.1727L131.06 69.7187H126.699L126.592 53.1718C126.592 47.9074 124.39 45.5319 119.451 45.4702C117.578 45.4702 115.392 45.5772 113.35 46.3582V69.7187H108.779V43.3124L108.942 43.2525C112.496 41.941 116.148 41.2471 119.506 41.2471C124.15 41.3142 127.214 42.7763 128.859 45.7133C130.574 42.7854 133.576 41.3024 137.787 41.3024C144.972 41.3024 148.929 45.7087 148.929 53.7097ZM100.845 41.8394H105.417V68.2448L105.253 68.3056C101.173 69.8058 98.1411 70.418 94.7909 70.418C86.6446 70.418 81.1716 65.2797 81.1716 57.6326V41.8911H85.6908V57.6326C85.6908 62.8026 89.2422 66.1423 94.7396 66.1423C96.6141 66.1423 98.7971 66.0344 100.845 65.2516V41.8394ZM70.6342 42.5106L70.8415 42.6176L69.1533 46.74L68.9225 46.6267C67.6847 46.0199 66.4268 45.7115 65.1864 45.7115C61.2378 45.7115 58.4817 48.7346 58.4817 53.0629V69.7187H53.9617V41.784H57.8842L58.2422 44.8108C59.8005 42.5541 62.4007 41.2743 65.4843 41.2743C67.2735 41.2743 69.1028 41.7133 70.6342 42.5106ZM46.0235 41.8394H50.595V68.2448L50.4312 68.3056C46.3511 69.8058 43.3197 70.418 39.9695 70.418C31.8223 70.418 26.3493 65.2797 26.3493 57.6326V41.8911H30.8693V57.6326C30.8693 62.8026 34.4207 66.1423 39.9173 66.1423C41.7918 66.1423 43.9747 66.0344 46.0235 65.2516V41.8394ZM19.7779 55.3722C19.7239 60.5341 16.1899 65.8729 10.3676 65.8729C8.37892 65.8729 6.31011 65.4829 4.52091 64.7718V46.2094C6.21167 45.6752 8.12718 45.4149 10.3676 45.4149C13.0192 45.4149 15.3293 46.37 17.0462 48.1768C18.8101 50.0344 19.8058 52.6566 19.7779 55.3722ZM10.3641 41.2471C7.59582 41.2933 3.93467 41.5137 0.168118 42.818L0 42.877V79.1663H4.52091V68.8008C6.32317 69.6951 8.28833 70.1477 10.3676 70.1477C15.6002 70.1477 18.8563 67.5754 20.6673 65.4167C22.9469 62.6992 24.27 59.0212 24.2979 55.3233C24.2979 48.3282 19.5131 41.2471 10.3641 41.2471Z" fill="#4E7182"/>
<path fill-rule="evenodd" clip-rule="evenodd" d="M75.5808 0.0687075C75.4676 -0.0229025 75.3091 -0.0229025 75.1958 0.0687075L74.1157 0.948526C73.6192 1.35397 61.958 10.9893 61.958 21.3376C61.958 29.7549 67.4223 34.1612 69.7716 35.6651C69.8448 35.7113 69.9319 35.7249 70.012 35.7032C70.0948 35.6814 70.1636 35.6252 70.2063 35.549L71.9388 32.3753C72.0216 32.2238 71.9746 32.0324 71.8335 31.9399C70.1052 30.8125 66.0861 27.5218 66.0861 21.3376C66.0861 14.8723 72.526 8.14399 75.2943 5.5517L75.3979 5.45374L75.5024 5.55079C77.6584 7.56077 84.6915 14.6383 84.6915 21.3376C84.6915 25.7413 82.7673 31.3748 77.3439 32.7581L75.8004 17.6868C75.7847 17.5209 75.6497 17.3948 75.4902 17.3948C75.33 17.3948 75.1958 17.5209 75.1793 17.6868L73.2855 36.8424C73.2768 36.934 73.3064 37.0247 73.3657 37.0928C73.4249 37.1608 73.5085 37.1989 73.5965 37.1989H75.3883C85.0355 37.1989 88.8186 28.0179 88.8186 21.3376C88.8186 10.9857 77.1566 1.35306 76.6601 0.948526L75.5808 0.0687075Z" fill="url(#paint0_linear)"/>
<defs>
<linearGradient id="paint0_linear" x1="75.3883" y1="0" x2="75.3883" y2="37.1989" gradientUnits="userSpaceOnUse">
<stop stop-color="#ADC32B"/>
<stop offset="0.341657" stop-color="#ADC32B"/>
<stop offset="0.73282" stop-color="#33A544"/>
<stop offset="1" stop-color="#33A544"/>
</linearGradient>
</defs>
</svg>
