<svg width="25" height="25" viewBox="0 0 25 25" fill="none" xmlns="http://www.w3.org/2000/svg">
<path d="M12.5 0C5.60707 0 0 5.60707 0 12.5C0 19.3929 5.60707 25 12.5 25C19.3929 25 25 19.3929 25 12.5C25 5.60707 19.3929 0 12.5 0ZM11.6304 6.90217C11.6304 6.79348 11.6848 6.68478 11.8478 6.68478H13.0978C13.2065 6.68478 13.3152 6.73913 13.3152 6.90217V14.2391C13.3152 14.3478 13.2609 14.4565 13.0978 14.4565H11.8478C11.7391 14.4565 11.6304 14.4022 11.6304 14.2391V6.90217ZM13.3696 18.0978C13.3696 18.2065 13.3152 18.3152 13.1522 18.3152H11.8478C11.7391 18.3152 11.6304 18.2609 11.6304 18.0978V16.6848C11.6304 16.5761 11.6848 16.4674 11.8478 16.4674H13.1522C13.2609 16.4674 13.3696 16.5217 13.3696 16.6848V18.0978Z" fill="#006145"/>
</svg>
