<svg width="50" height="50" viewBox="0 0 50 50" fill="none" xmlns="http://www.w3.org/2000/svg">
<path d="M20.8008 35.4492L39.5508 16.6992L36.6211 13.6719L20.8008 29.4922L13.3789 22.0703L10.4492 25L20.8008 35.4492ZM10.2539 10.3516C14.3555 6.25 19.2708 4.19922 25 4.19922C30.7292 4.19922 35.612 6.25 39.6484 10.3516C43.75 14.388 45.8008 19.2708 45.8008 25C45.8008 30.7292 43.75 35.6445 39.6484 39.7461C35.612 43.7826 30.7292 45.8008 25 45.8008C19.2708 45.8008 14.3555 43.7826 10.2539 39.7461C6.21745 35.6445 4.19922 30.7292 4.19922 25C4.19922 19.2708 6.21745 14.388 10.2539 10.3516Z" fill="#006145"/>
</svg>
