<svg width="574" height="84" viewBox="0 0 574 84" fill="none" xmlns="http://www.w3.org/2000/svg">
<circle cx="283" cy="25" r="22.5" stroke="#DFDFDF" stroke-width="5"/>
<circle cx="412" cy="25" r="22.5" stroke="#DFDFDF" stroke-width="5"/>
<circle cx="541" cy="25" r="22.5" stroke="#DFDFDF" stroke-width="5"/>
<path d="M149.952 29.28C151.488 27.952 152.696 26.864 153.576 26.016C154.472 25.152 155.216 24.256 155.808 23.328C156.4 22.4 156.696 21.472 156.696 20.544C156.696 19.584 156.464 18.832 156 18.288C155.552 17.744 154.84 17.472 153.864 17.472C152.92 17.472 152.184 17.776 151.656 18.384C151.144 18.976 150.872 19.776 150.84 20.784H148.2C148.248 18.96 148.792 17.568 149.832 16.608C150.888 15.632 152.224 15.144 153.84 15.144C155.584 15.144 156.944 15.624 157.92 16.584C158.912 17.544 159.408 18.824 159.408 20.424C159.408 21.576 159.112 22.688 158.52 23.76C157.944 24.816 157.248 25.768 156.432 26.616C155.632 27.448 154.608 28.416 153.36 29.52L152.28 30.48H159.888V32.76H148.224V30.768L149.952 29.28Z" fill="#006145"/>
<path d="M277.392 19.824C277.488 18.336 278.056 17.176 279.096 16.344C280.152 15.512 281.496 15.096 283.128 15.096C284.248 15.096 285.216 15.296 286.032 15.696C286.848 16.096 287.464 16.64 287.88 17.328C288.296 18.016 288.504 18.792 288.504 19.656C288.504 20.648 288.24 21.496 287.712 22.2C287.184 22.904 286.552 23.376 285.816 23.616V23.712C286.76 24 287.496 24.528 288.024 25.296C288.552 26.048 288.816 27.016 288.816 28.2C288.816 29.144 288.6 29.984 288.168 30.72C287.736 31.456 287.096 32.04 286.248 32.472C285.4 32.888 284.384 33.096 283.2 33.096C281.472 33.096 280.048 32.656 278.928 31.776C277.824 30.88 277.232 29.6 277.152 27.936H279.792C279.856 28.784 280.184 29.48 280.776 30.024C281.368 30.552 282.168 30.816 283.176 30.816C284.152 30.816 284.904 30.552 285.432 30.024C285.96 29.48 286.224 28.784 286.224 27.936C286.224 26.816 285.864 26.024 285.144 25.56C284.44 25.08 283.352 24.84 281.88 24.84H281.256V22.584H281.904C283.2 22.568 284.184 22.352 284.856 21.936C285.544 21.52 285.888 20.864 285.888 19.968C285.888 19.2 285.64 18.592 285.144 18.144C284.648 17.68 283.944 17.448 283.032 17.448C282.136 17.448 281.44 17.68 280.944 18.144C280.448 18.592 280.152 19.152 280.056 19.824H277.392Z" fill="#DFDFDF"/>
<path d="M405.104 29.352V27.288L413.168 15.72H416.48V26.976H418.712V29.352H416.48V33H413.792V29.352H405.104ZM413.912 18.504L408.248 26.976H413.912V18.504Z" fill="#DFDFDF"/>
<path d="M545.72 17.856H537.68V22.632C538.016 22.184 538.512 21.808 539.168 21.504C539.84 21.2 540.552 21.048 541.304 21.048C542.648 21.048 543.736 21.336 544.568 21.912C545.416 22.488 546.016 23.216 546.368 24.096C546.736 24.976 546.92 25.904 546.92 26.88C546.92 28.064 546.688 29.12 546.224 30.048C545.776 30.96 545.096 31.68 544.184 32.208C543.288 32.736 542.184 33 540.872 33C539.128 33 537.728 32.568 536.672 31.704C535.616 30.84 534.984 29.696 534.776 28.272H537.44C537.616 29.024 538.008 29.624 538.616 30.072C539.224 30.504 539.984 30.72 540.896 30.72C542.032 30.72 542.88 30.376 543.44 29.688C544.016 29 544.304 28.088 544.304 26.952C544.304 25.8 544.016 24.92 543.44 24.312C542.864 23.688 542.016 23.376 540.896 23.376C540.112 23.376 539.448 23.576 538.904 23.976C538.376 24.36 537.992 24.888 537.752 25.56H535.16V15.456H545.72V17.856Z" fill="#DFDFDF"/>
<line x1="47" y1="22.5" x2="132" y2="22.5" stroke="#DFDFDF" stroke-width="5"/>
<line x1="176" y1="22.5" x2="261" y2="22.5" stroke="#DFDFDF" stroke-width="5"/>
<line x1="305" y1="22.5" x2="390" y2="22.5" stroke="#DFDFDF" stroke-width="5"/>
<line x1="433" y1="22.5" x2="518" y2="22.5" stroke="#DFDFDF" stroke-width="5"/>
<circle cx="25" cy="25" r="22.5" stroke="#DFDFDF" stroke-width="5"/>
<path d="M10.288 70.66V71.776H8.068V79H6.7V71.776H4.468V70.66H10.288ZM15.4774 79.084C14.7014 79.084 13.9854 78.904 13.3294 78.544C12.6814 78.176 12.1654 77.668 11.7814 77.02C11.4054 76.364 11.2174 75.628 11.2174 74.812C11.2174 73.996 11.4054 73.264 11.7814 72.616C12.1654 71.968 12.6814 71.464 13.3294 71.104C13.9854 70.736 14.7014 70.552 15.4774 70.552C16.2614 70.552 16.9774 70.736 17.6254 71.104C18.2814 71.464 18.7974 71.968 19.1734 72.616C19.5494 73.264 19.7374 73.996 19.7374 74.812C19.7374 75.628 19.5494 76.364 19.1734 77.02C18.7974 77.668 18.2814 78.176 17.6254 78.544C16.9774 78.904 16.2614 79.084 15.4774 79.084ZM15.4774 77.896C16.0294 77.896 16.5214 77.772 16.9534 77.524C17.3854 77.268 17.7214 76.908 17.9614 76.444C18.2094 75.972 18.3334 75.428 18.3334 74.812C18.3334 74.196 18.2094 73.656 17.9614 73.192C17.7214 72.728 17.3854 72.372 16.9534 72.124C16.5214 71.876 16.0294 71.752 15.4774 71.752C14.9254 71.752 14.4334 71.876 14.0014 72.124C13.5694 72.372 13.2294 72.728 12.9814 73.192C12.7414 73.656 12.6214 74.196 12.6214 74.812C12.6214 75.428 12.7414 75.972 12.9814 76.444C13.2294 76.908 13.5694 77.268 14.0014 77.524C14.4334 77.772 14.9254 77.896 15.4774 77.896ZM23.8076 70.66C24.6956 70.66 25.4716 70.832 26.1356 71.176C26.8076 71.512 27.3236 72 27.6836 72.64C28.0516 73.272 28.2356 74.012 28.2356 74.86C28.2356 75.708 28.0516 76.444 27.6836 77.068C27.3236 77.692 26.8076 78.172 26.1356 78.508C25.4716 78.836 24.6956 79 23.8076 79H21.0836V70.66H23.8076ZM23.8076 77.884C24.7836 77.884 25.5316 77.62 26.0516 77.092C26.5716 76.564 26.8316 75.82 26.8316 74.86C26.8316 73.892 26.5716 73.136 26.0516 72.592C25.5316 72.048 24.7836 71.776 23.8076 71.776H22.4516V77.884H23.8076ZM34.6194 77.296H31.1274L30.5274 79H29.0994L32.0874 70.648H33.6714L36.6594 79H35.2194L34.6194 77.296ZM34.2354 76.18L32.8794 72.304L31.5114 76.18H34.2354ZM44.1386 70.66L41.3786 75.976V79H40.0106V75.976L37.2386 70.66H38.7626L40.6946 74.752L42.6266 70.66H44.1386Z" fill="#DFDFDF"/>
<path d="M128.268 71.764V74.212H131.148V75.328H128.268V77.884H131.508V79H126.9V70.648H131.508V71.764H128.268ZM140.045 79H138.677L134.561 72.772V79H133.193V70.648H134.561L138.677 76.864V70.648H140.045V79ZM148.501 70.66V79H147.133V75.352H143.209V79H141.841V70.66H143.209V74.236H147.133V70.66H148.501ZM155.33 77.296H151.838L151.238 79H149.81L152.798 70.648H154.382L157.37 79H155.93L155.33 77.296ZM154.946 76.18L153.59 72.304L152.222 76.18H154.946ZM165.522 79H164.154L160.038 72.772V79H158.67V70.648H160.038L164.154 76.864V70.648H165.522V79ZM166.862 74.812C166.862 73.996 167.05 73.264 167.426 72.616C167.81 71.968 168.326 71.464 168.974 71.104C169.63 70.736 170.346 70.552 171.122 70.552C172.01 70.552 172.798 70.772 173.486 71.212C174.182 71.644 174.686 72.26 174.998 73.06H173.354C173.138 72.62 172.838 72.292 172.454 72.076C172.07 71.86 171.626 71.752 171.122 71.752C170.57 71.752 170.078 71.876 169.646 72.124C169.214 72.372 168.874 72.728 168.626 73.192C168.386 73.656 168.266 74.196 168.266 74.812C168.266 75.428 168.386 75.968 168.626 76.432C168.874 76.896 169.214 77.256 169.646 77.512C170.078 77.76 170.57 77.884 171.122 77.884C171.626 77.884 172.07 77.776 172.454 77.56C172.838 77.344 173.138 77.016 173.354 76.576H174.998C174.686 77.376 174.182 77.992 173.486 78.424C172.798 78.856 172.01 79.072 171.122 79.072C170.338 79.072 169.622 78.892 168.974 78.532C168.326 78.164 167.81 77.656 167.426 77.008C167.05 76.36 166.862 75.628 166.862 74.812ZM177.967 71.764V74.212H180.847V75.328H177.967V77.884H181.207V79H176.599V70.648H181.207V71.764H177.967Z" fill="#DFDFDF"/>
<circle cx="154" cy="25" r="22.5" stroke="#006145" stroke-width="5"/>
<path d="M253.648 79.084C253.088 79.084 252.584 78.988 252.136 78.796C251.688 78.596 251.336 78.316 251.08 77.956C250.824 77.596 250.696 77.176 250.696 76.696H252.16C252.192 77.056 252.332 77.352 252.58 77.584C252.836 77.816 253.192 77.932 253.648 77.932C254.12 77.932 254.488 77.82 254.752 77.596C255.016 77.364 255.148 77.068 255.148 76.708C255.148 76.428 255.064 76.2 254.896 76.024C254.736 75.848 254.532 75.712 254.284 75.616C254.044 75.52 253.708 75.416 253.276 75.304C252.732 75.16 252.288 75.016 251.944 74.872C251.608 74.72 251.32 74.488 251.08 74.176C250.84 73.864 250.72 73.448 250.72 72.928C250.72 72.448 250.84 72.028 251.08 71.668C251.32 71.308 251.656 71.032 252.088 70.84C252.52 70.648 253.02 70.552 253.588 70.552C254.396 70.552 255.056 70.756 255.568 71.164C256.088 71.564 256.376 72.116 256.432 72.82H254.92C254.896 72.516 254.752 72.256 254.488 72.04C254.224 71.824 253.876 71.716 253.444 71.716C253.052 71.716 252.732 71.816 252.484 72.016C252.236 72.216 252.112 72.504 252.112 72.88C252.112 73.136 252.188 73.348 252.34 73.516C252.5 73.676 252.7 73.804 252.94 73.9C253.18 73.996 253.508 74.1 253.924 74.212C254.476 74.364 254.924 74.516 255.268 74.668C255.62 74.82 255.916 75.056 256.156 75.376C256.404 75.688 256.528 76.108 256.528 76.636C256.528 77.06 256.412 77.46 256.18 77.836C255.956 78.212 255.624 78.516 255.184 78.748C254.752 78.972 254.24 79.084 253.648 79.084ZM259.498 70.66V75.976C259.498 76.608 259.662 77.084 259.99 77.404C260.326 77.724 260.79 77.884 261.382 77.884C261.982 77.884 262.446 77.724 262.774 77.404C263.11 77.084 263.278 76.608 263.278 75.976V70.66H264.646V75.952C264.646 76.632 264.498 77.208 264.202 77.68C263.906 78.152 263.51 78.504 263.014 78.736C262.518 78.968 261.97 79.084 261.37 79.084C260.77 79.084 260.222 78.968 259.726 78.736C259.238 78.504 258.85 78.152 258.562 77.68C258.274 77.208 258.13 76.632 258.13 75.952V70.66H259.498ZM270.891 74.716C271.339 74.796 271.719 75.032 272.031 75.424C272.343 75.816 272.499 76.26 272.499 76.756C272.499 77.18 272.387 77.564 272.163 77.908C271.947 78.244 271.631 78.512 271.215 78.712C270.799 78.904 270.315 79 269.763 79H266.427V70.66H269.607C270.175 70.66 270.663 70.756 271.071 70.948C271.479 71.14 271.787 71.4 271.995 71.728C272.203 72.048 272.307 72.408 272.307 72.808C272.307 73.288 272.179 73.688 271.923 74.008C271.667 74.328 271.323 74.564 270.891 74.716ZM267.795 74.164H269.487C269.935 74.164 270.283 74.064 270.531 73.864C270.787 73.656 270.915 73.36 270.915 72.976C270.915 72.6 270.787 72.308 270.531 72.1C270.283 71.884 269.935 71.776 269.487 71.776H267.795V74.164ZM269.643 77.884C270.107 77.884 270.471 77.772 270.735 77.548C270.999 77.324 271.131 77.012 271.131 76.612C271.131 76.204 270.991 75.88 270.711 75.64C270.431 75.4 270.059 75.28 269.595 75.28H267.795V77.884H269.643ZM276.734 79.084C276.174 79.084 275.67 78.988 275.222 78.796C274.774 78.596 274.422 78.316 274.166 77.956C273.91 77.596 273.782 77.176 273.782 76.696H275.246C275.278 77.056 275.418 77.352 275.666 77.584C275.922 77.816 276.278 77.932 276.734 77.932C277.206 77.932 277.574 77.82 277.838 77.596C278.102 77.364 278.234 77.068 278.234 76.708C278.234 76.428 278.15 76.2 277.982 76.024C277.822 75.848 277.618 75.712 277.37 75.616C277.13 75.52 276.794 75.416 276.362 75.304C275.818 75.16 275.374 75.016 275.03 74.872C274.694 74.72 274.406 74.488 274.166 74.176C273.926 73.864 273.806 73.448 273.806 72.928C273.806 72.448 273.926 72.028 274.166 71.668C274.406 71.308 274.742 71.032 275.174 70.84C275.606 70.648 276.106 70.552 276.674 70.552C277.482 70.552 278.142 70.756 278.654 71.164C279.174 71.564 279.462 72.116 279.518 72.82H278.006C277.982 72.516 277.838 72.256 277.574 72.04C277.31 71.824 276.962 71.716 276.53 71.716C276.138 71.716 275.818 71.816 275.57 72.016C275.322 72.216 275.198 72.504 275.198 72.88C275.198 73.136 275.274 73.348 275.426 73.516C275.586 73.676 275.786 73.804 276.026 73.9C276.266 73.996 276.594 74.1 277.01 74.212C277.562 74.364 278.01 74.516 278.354 74.668C278.706 74.82 279.002 75.056 279.242 75.376C279.49 75.688 279.614 76.108 279.614 76.636C279.614 77.06 279.498 77.46 279.266 77.836C279.042 78.212 278.71 78.516 278.27 78.748C277.838 78.972 277.326 79.084 276.734 79.084ZM280.772 74.812C280.772 73.996 280.96 73.264 281.336 72.616C281.72 71.968 282.236 71.464 282.884 71.104C283.54 70.736 284.256 70.552 285.032 70.552C285.92 70.552 286.708 70.772 287.396 71.212C288.092 71.644 288.596 72.26 288.908 73.06H287.264C287.048 72.62 286.748 72.292 286.364 72.076C285.98 71.86 285.536 71.752 285.032 71.752C284.48 71.752 283.988 71.876 283.556 72.124C283.124 72.372 282.784 72.728 282.536 73.192C282.296 73.656 282.176 74.196 282.176 74.812C282.176 75.428 282.296 75.968 282.536 76.432C282.784 76.896 283.124 77.256 283.556 77.512C283.988 77.76 284.48 77.884 285.032 77.884C285.536 77.884 285.98 77.776 286.364 77.56C286.748 77.344 287.048 77.016 287.264 76.576H288.908C288.596 77.376 288.092 77.992 287.396 78.424C286.708 78.856 285.92 79.072 285.032 79.072C284.248 79.072 283.532 78.892 282.884 78.532C282.236 78.164 281.72 77.656 281.336 77.008C280.96 76.36 280.772 75.628 280.772 74.812ZM294.841 79L292.921 75.664H291.877V79H290.509V70.66H293.389C294.029 70.66 294.569 70.772 295.009 70.996C295.457 71.22 295.789 71.52 296.005 71.896C296.229 72.272 296.341 72.692 296.341 73.156C296.341 73.7 296.181 74.196 295.861 74.644C295.549 75.084 295.065 75.384 294.409 75.544L296.473 79H294.841ZM291.877 74.572H293.389C293.901 74.572 294.285 74.444 294.541 74.188C294.805 73.932 294.937 73.588 294.937 73.156C294.937 72.724 294.809 72.388 294.553 72.148C294.297 71.9 293.909 71.776 293.389 71.776H291.877V74.572ZM299.459 70.66V79H298.091V70.66H299.459ZM305.719 74.716C306.167 74.796 306.547 75.032 306.859 75.424C307.171 75.816 307.327 76.26 307.327 76.756C307.327 77.18 307.215 77.564 306.991 77.908C306.775 78.244 306.459 78.512 306.043 78.712C305.627 78.904 305.143 79 304.591 79H301.255V70.66H304.435C305.003 70.66 305.491 70.756 305.899 70.948C306.307 71.14 306.615 71.4 306.823 71.728C307.031 72.048 307.135 72.408 307.135 72.808C307.135 73.288 307.007 73.688 306.751 74.008C306.495 74.328 306.151 74.564 305.719 74.716ZM302.623 74.164H304.315C304.763 74.164 305.111 74.064 305.359 73.864C305.615 73.656 305.743 73.36 305.743 72.976C305.743 72.6 305.615 72.308 305.359 72.1C305.111 71.884 304.763 71.776 304.315 71.776H302.623V74.164ZM304.471 77.884C304.935 77.884 305.299 77.772 305.563 77.548C305.827 77.324 305.959 77.012 305.959 76.612C305.959 76.204 305.819 75.88 305.539 75.64C305.259 75.4 304.887 75.28 304.423 75.28H302.623V77.884H304.471ZM310.182 71.764V74.212H313.062V75.328H310.182V77.884H313.422V79H308.814V70.648H313.422V71.764H310.182Z" fill="#DFDFDF"/>
<path d="M387.648 79.084C387.088 79.084 386.584 78.988 386.136 78.796C385.688 78.596 385.336 78.316 385.08 77.956C384.824 77.596 384.696 77.176 384.696 76.696H386.16C386.192 77.056 386.332 77.352 386.58 77.584C386.836 77.816 387.192 77.932 387.648 77.932C388.12 77.932 388.488 77.82 388.752 77.596C389.016 77.364 389.148 77.068 389.148 76.708C389.148 76.428 389.064 76.2 388.896 76.024C388.736 75.848 388.532 75.712 388.284 75.616C388.044 75.52 387.708 75.416 387.276 75.304C386.732 75.16 386.288 75.016 385.944 74.872C385.608 74.72 385.32 74.488 385.08 74.176C384.84 73.864 384.72 73.448 384.72 72.928C384.72 72.448 384.84 72.028 385.08 71.668C385.32 71.308 385.656 71.032 386.088 70.84C386.52 70.648 387.02 70.552 387.588 70.552C388.396 70.552 389.056 70.756 389.568 71.164C390.088 71.564 390.376 72.116 390.432 72.82H388.92C388.896 72.516 388.752 72.256 388.488 72.04C388.224 71.824 387.876 71.716 387.444 71.716C387.052 71.716 386.732 71.816 386.484 72.016C386.236 72.216 386.112 72.504 386.112 72.88C386.112 73.136 386.188 73.348 386.34 73.516C386.5 73.676 386.7 73.804 386.94 73.9C387.18 73.996 387.508 74.1 387.924 74.212C388.476 74.364 388.924 74.516 389.268 74.668C389.62 74.82 389.916 75.056 390.156 75.376C390.404 75.688 390.528 76.108 390.528 76.636C390.528 77.06 390.412 77.46 390.18 77.836C389.956 78.212 389.624 78.516 389.184 78.748C388.752 78.972 388.24 79.084 387.648 79.084ZM398.802 70.66V79H397.434V75.352H393.51V79H392.142V70.66H393.51V74.236H397.434V70.66H398.802ZM401.971 70.66V79H400.603V70.66H401.971ZM409.599 73.144C409.599 73.568 409.499 73.968 409.299 74.344C409.099 74.72 408.779 75.028 408.339 75.268C407.899 75.5 407.335 75.616 406.647 75.616H405.135V79H403.767V70.66H406.647C407.287 70.66 407.827 70.772 408.267 70.996C408.715 71.212 409.047 71.508 409.263 71.884C409.487 72.26 409.599 72.68 409.599 73.144ZM406.647 74.5C407.167 74.5 407.555 74.384 407.811 74.152C408.067 73.912 408.195 73.576 408.195 73.144C408.195 72.232 407.679 71.776 406.647 71.776H405.135V74.5H406.647ZM416.736 73.144C416.736 73.568 416.636 73.968 416.436 74.344C416.236 74.72 415.916 75.028 415.476 75.268C415.036 75.5 414.472 75.616 413.784 75.616H412.272V79H410.904V70.66H413.784C414.424 70.66 414.964 70.772 415.404 70.996C415.852 71.212 416.184 71.508 416.4 71.884C416.624 72.26 416.736 72.68 416.736 73.144ZM413.784 74.5C414.304 74.5 414.692 74.384 414.948 74.152C415.204 73.912 415.332 73.576 415.332 73.144C415.332 72.232 414.816 71.776 413.784 71.776H412.272V74.5H413.784ZM419.409 70.66V79H418.041V70.66H419.409ZM428.057 79H426.689L422.573 72.772V79H421.205V70.648H422.573L426.689 76.864V70.648H428.057V79ZM435.889 73.06C435.673 72.644 435.373 72.332 434.989 72.124C434.605 71.908 434.161 71.8 433.657 71.8C433.105 71.8 432.613 71.924 432.181 72.172C431.749 72.42 431.409 72.772 431.161 73.228C430.921 73.684 430.801 74.212 430.801 74.812C430.801 75.412 430.921 75.944 431.161 76.408C431.409 76.864 431.749 77.216 432.181 77.464C432.613 77.712 433.105 77.836 433.657 77.836C434.401 77.836 435.005 77.628 435.469 77.212C435.933 76.796 436.217 76.232 436.321 75.52H433.189V74.428H437.785V75.496C437.697 76.144 437.465 76.74 437.089 77.284C436.721 77.828 436.237 78.264 435.637 78.592C435.045 78.912 434.385 79.072 433.657 79.072C432.873 79.072 432.157 78.892 431.509 78.532C430.861 78.164 430.345 77.656 429.961 77.008C429.585 76.36 429.397 75.628 429.397 74.812C429.397 73.996 429.585 73.264 429.961 72.616C430.345 71.968 430.861 71.464 431.509 71.104C432.165 70.736 432.881 70.552 433.657 70.552C434.545 70.552 435.333 70.772 436.021 71.212C436.717 71.644 437.221 72.26 437.533 73.06H435.889Z" fill="#DFDFDF"/>
<path d="M508.444 74.812C508.444 73.996 508.632 73.264 509.008 72.616C509.392 71.968 509.908 71.464 510.556 71.104C511.212 70.736 511.928 70.552 512.704 70.552C513.592 70.552 514.38 70.772 515.068 71.212C515.764 71.644 516.268 72.26 516.58 73.06H514.936C514.72 72.62 514.42 72.292 514.036 72.076C513.652 71.86 513.208 71.752 512.704 71.752C512.152 71.752 511.66 71.876 511.228 72.124C510.796 72.372 510.456 72.728 510.208 73.192C509.968 73.656 509.848 74.196 509.848 74.812C509.848 75.428 509.968 75.968 510.208 76.432C510.456 76.896 510.796 77.256 511.228 77.512C511.66 77.76 512.152 77.884 512.704 77.884C513.208 77.884 513.652 77.776 514.036 77.56C514.42 77.344 514.72 77.016 514.936 76.576H516.58C516.268 77.376 515.764 77.992 515.068 78.424C514.38 78.856 513.592 79.072 512.704 79.072C511.92 79.072 511.204 78.892 510.556 78.532C509.908 78.164 509.392 77.656 509.008 77.008C508.632 76.36 508.444 75.628 508.444 74.812ZM524.841 70.66V79H523.473V75.352H519.549V79H518.181V70.66H519.549V74.236H523.473V70.66H524.841ZM528.01 71.764V74.212H530.89V75.328H528.01V77.884H531.25V79H526.642V70.648H531.25V71.764H528.01ZM532.479 74.812C532.479 73.996 532.667 73.264 533.043 72.616C533.427 71.968 533.943 71.464 534.591 71.104C535.247 70.736 535.963 70.552 536.739 70.552C537.627 70.552 538.415 70.772 539.103 71.212C539.799 71.644 540.303 72.26 540.615 73.06H538.971C538.755 72.62 538.455 72.292 538.071 72.076C537.687 71.86 537.243 71.752 536.739 71.752C536.187 71.752 535.695 71.876 535.263 72.124C534.831 72.372 534.491 72.728 534.243 73.192C534.003 73.656 533.883 74.196 533.883 74.812C533.883 75.428 534.003 75.968 534.243 76.432C534.491 76.896 534.831 77.256 535.263 77.512C535.695 77.76 536.187 77.884 536.739 77.884C537.243 77.884 537.687 77.776 538.071 77.56C538.455 77.344 538.755 77.016 538.971 76.576H540.615C540.303 77.376 539.799 77.992 539.103 78.424C538.415 78.856 537.627 79.072 536.739 79.072C535.955 79.072 535.239 78.892 534.591 78.532C533.943 78.164 533.427 77.656 533.043 77.008C532.667 76.36 532.479 75.628 532.479 74.812ZM546.812 79L543.584 75.268V79H542.216V70.66H543.584V74.464L546.824 70.66H548.54L544.916 74.836L548.6 79H546.812ZM553.614 79.084C552.838 79.084 552.122 78.904 551.466 78.544C550.818 78.176 550.302 77.668 549.918 77.02C549.542 76.364 549.354 75.628 549.354 74.812C549.354 73.996 549.542 73.264 549.918 72.616C550.302 71.968 550.818 71.464 551.466 71.104C552.122 70.736 552.838 70.552 553.614 70.552C554.398 70.552 555.114 70.736 555.762 71.104C556.418 71.464 556.934 71.968 557.31 72.616C557.686 73.264 557.874 73.996 557.874 74.812C557.874 75.628 557.686 76.364 557.31 77.02C556.934 77.668 556.418 78.176 555.762 78.544C555.114 78.904 554.398 79.084 553.614 79.084ZM553.614 77.896C554.166 77.896 554.658 77.772 555.09 77.524C555.522 77.268 555.858 76.908 556.098 76.444C556.346 75.972 556.47 75.428 556.47 74.812C556.47 74.196 556.346 73.656 556.098 73.192C555.858 72.728 555.522 72.372 555.09 72.124C554.658 71.876 554.166 71.752 553.614 71.752C553.062 71.752 552.57 71.876 552.138 72.124C551.706 72.372 551.366 72.728 551.118 73.192C550.878 73.656 550.758 74.196 550.758 74.812C550.758 75.428 550.878 75.972 551.118 76.444C551.366 76.908 551.706 77.268 552.138 77.524C552.57 77.772 553.062 77.896 553.614 77.896ZM560.576 70.66V75.976C560.576 76.608 560.74 77.084 561.068 77.404C561.404 77.724 561.868 77.884 562.46 77.884C563.06 77.884 563.524 77.724 563.852 77.404C564.188 77.084 564.356 76.608 564.356 75.976V70.66H565.724V75.952C565.724 76.632 565.576 77.208 565.28 77.68C564.984 78.152 564.588 78.504 564.092 78.736C563.596 78.968 563.048 79.084 562.448 79.084C561.848 79.084 561.3 78.968 560.804 78.736C560.316 78.504 559.928 78.152 559.64 77.68C559.352 77.208 559.208 76.632 559.208 75.952V70.66H560.576ZM572.893 70.66V71.776H570.673V79H569.305V71.776H567.073V70.66H572.893Z" fill="#DFDFDF"/>
<path d="M21.1615 28.5365L16.8178 24.1927L15.3386 25.6615L21.1615 31.4844L33.6615 18.9844L32.1928 17.5156L21.1615 28.5365Z" fill="#E3E3E3"/>
</svg>
